<svg aria-hidden="true" style="position: absolute; width: 0; height: 0; overflow: hidden;" version="1.1" xmlns="http://www.w3.org/2000/svg" xmlns:xlink="http://www.w3.org/1999/xlink">
<defs>
<symbol id="icon-terminal" viewBox="0 0 32 32">
<path d="M12 18c0-0.552 0.448-1 1-1v0h6c0.552 0 1 0.448 1 1s-0.448 1-1 1v0h-6c-0.552 0-1-0.448-1-1v0zM7.708 8.292c-0.181-0.181-0.431-0.293-0.708-0.293-0.553 0-1.001 0.448-1.001 1.001 0 0.277 0.112 0.527 0.293 0.708v0l3.294 3.292-3.294 3.292c-0.181 0.181-0.293 0.431-0.293 0.708 0 0.553 0.448 1.001 1.001 1.001 0.277 0 0.527-0.112 0.708-0.293v0l4-4c0.181-0.181 0.294-0.431 0.294-0.708s-0.112-0.527-0.294-0.708l-4-4z"></path>
<path d="M4 2c-2.209 0-4 1.791-4 4v0 20c0 2.209 1.791 4 4 4v0h24c2.209 0 4-1.791 4-4v0-20c0-2.209-1.791-4-4-4v0h-24zM28 4c1.105 0 2 0.895 2 2v0 20c0 1.105-0.895 2-2 2v0h-24c-1.105 0-2-0.895-2-2v0-20c0-1.105 0.895-2 2-2v0h24z"></path>
</symbol>
<symbol id="icon-window" viewBox="0 0 32 32">
<path d="M5 8c0.552 0 1-0.448 1-1s-0.448-1-1-1v0c-0.552 0-1 0.448-1 1s0.448 1 1 1v0zM9 7c0 0.552-0.448 1-1 1s-1-0.448-1-1v0c0-0.552 0.448-1 1-1s1 0.448 1 1v0zM11 8c0.552 0 1-0.448 1-1s-0.448-1-1-1v0c-0.552 0-1 0.448-1 1s0.448 1 1 1v0z"></path>
<path d="M4 2c-2.209 0-4 1.791-4 4v0 20c0 2.209 1.791 4 4 4v0h24c2.209 0 4-1.791 4-4v0-20c0-2.209-1.791-4-4-4v0h-24zM30 6v4h-28v-4c0-1.105 0.895-2 2-2v0h24c1.105 0 2 0.895 2 2v0zM4 28c-1.105 0-2-0.895-2-2v0-14h28v14c0 1.105-0.895 2-2 2v0h-24z"></path>
</symbol>
<symbol id="icon-layers" viewBox="0 0 32 32">
<path d="M16.47 3.118c-0.136-0.074-0.298-0.117-0.47-0.117s-0.334 0.043-0.475 0.12l0.005-0.003-15 8c-0.317 0.172-0.529 0.502-0.529 0.882s0.212 0.71 0.523 0.879l0.005 0.003 5.846 3.118-5.848 3.118c-0.317 0.172-0.529 0.502-0.529 0.882s0.212 0.71 0.523 0.879l0.005 0.003 15 8c0.136 0.074 0.298 0.117 0.47 0.117s0.334-0.043 0.475-0.12l-0.005 0.003 15-8c0.317-0.172 0.529-0.502 0.529-0.882s-0.212-0.71-0.523-0.879l-0.005-0.003-5.842-3.118 5.844-3.118c0.317-0.172 0.529-0.502 0.529-0.882s-0.212-0.71-0.523-0.879l-0.005-0.003-15-8zM23.5 17.134l5.376 2.866-12.876 6.866-12.876-6.866 5.376-2.866 7.030 3.748c0.136 0.074 0.298 0.117 0.47 0.117s0.334-0.043 0.475-0.12l-0.005 0.003 7.030-3.748zM16 18.866l-12.876-6.866 12.876-6.866 12.876 6.866-12.876 6.866z"></path>
</symbol>
</defs>
</svg>
